<?xml version="1.0" encoding="UTF-8"?>
<svg width="19px" height="18px" viewBox="0 0 19 18" version="1.1" xmlns="http://www.w3.org/2000/svg" xmlns:xlink="http://www.w3.org/1999/xlink">
    <title>icon_我的优惠</title>
    <g id="A03_优惠卷需求_H5APP---OK" stroke="none" stroke-width="1" fill="none" fill-rule="evenodd">
        <g id="02_我的优惠CNY&amp;USDT_1" transform="translate(-298.000000, -473.000000)" fill="#6D778B">
            <g id="icon_我的优惠" transform="translate(298.000000, 473.000000)">
                <path d="M19,5.47600291 L19,8.68719212 L10.1333333,8.68719212 L10.1333333,4.47536946 L17.9339284,4.47536946 C18.5227046,4.47536946 19,4.92336723 19,5.47600291 M10.1333333,18 L17.7333333,18 L17.7333333,9.38916256 L10.1333333,9.38916256 L10.1333333,18 Z M0,5.47600291 L0,8.68719212 L8.86666667,8.68719212 L8.86666667,4.47536946 L1.06607165,4.47536946 C0.477295376,4.47536946 0,4.92336723 0,5.47600291 M1.26666667,18 L8.86666667,18 L8.86666667,9.38916256 L1.26666667,9.38916256 L1.26666667,18 Z M14.1755919,2.30446056 C14.0537146,2.55602708 13.7961328,2.76000986 13.4501692,2.87885595 C13.0218702,3.02606791 12.078191,3.00600633 11.1657483,2.98651504 C10.9777015,2.9824996 10.7859127,2.97842167 10.5952648,2.97564055 C10.5467215,2.97493745 10.4982695,2.97428905 10.45,2.97380469 C10.71591,2.38908947 11.1222019,1.53411326 12.1390555,1.14010799 C12.4559616,1.01730897 12.6138214,0.997169272 12.8284158,1.00029413 C13.3684271,1.00816876 13.853917,1.21769817 14.0953443,1.54712829 C14.2689365,1.78399237 14.2974236,2.05295653 14.1755919,2.30446056 M7.45473533,2.97564055 C7.26408758,2.97842167 7.07229898,2.9824996 6.88424096,2.98651504 C5.97181047,3.00600633 5.02813205,3.02606791 4.59982204,2.87885595 C4.25387013,2.76000986 3.99627719,2.55602708 3.8744114,2.30446056 C3.75257983,2.05295653 3.78105549,1.78399237 3.95465892,1.54712829 C4.19608598,1.21769817 4.68157549,1.00816876 5.2215863,1.00029413 C5.43618053,0.997169272 5.5940402,1.01730897 5.91094603,1.14010799 C6.92778728,1.53411326 7.33409025,2.38908947 7.6,2.97380469 C7.55173056,2.97428905 7.50327858,2.97493745 7.45473533,2.97564055 M15.8640298,1.04239721 C15.212309,0.118148336 13.6006607,-0.263165149 12.2709181,0.192378415 C10.6605691,0.744175084 9.95518683,1.84624216 9.49999771,2.91536897 C9.0448212,1.84624216 8.33943889,0.744175084 6.72907728,0.192378415 C5.39933468,-0.263165149 3.78769902,0.118148336 3.1359782,1.04239721 C2.81500585,1.49762654 2.76227783,2.01451676 2.98762073,2.49796394 C3.21292578,2.98136622 3.68921873,3.37341739 4.32882977,3.60186253 C5.26188864,3.93511679 5.97100479,4.02695272 8.17444308,3.99358151 C8.56598015,3.98764705 10.4340153,3.98764705 10.8255523,3.99358151 C13.0290032,4.02695272 13.7381068,3.93511679 14.6711656,3.60186253 C15.3107767,3.37341739 15.7870822,2.98136622 16.0123747,2.49796394 C16.2377176,2.01451676 16.1850022,1.49762654 15.8640298,1.04239721" id="形状结合"></path>
            </g>
        </g>
    </g>
</svg>